{"title":"Jurassic CSI S01 Ultimate Dino Secrets Special HDTV XviD-AFG","uid":11999851,"size":464689902,"categoryP":"video","categoryS":"tv_shows","magnet":"?xt=urn:btih:74f8bd17d307242aee7599c7b86f0dda8e031b9b&amp;dn=Jurassic+CSI+S01+Ultimate+Dino+Secrets+Special+HDTV+XviD-AFG&amp;tr=udp%3A%2F%2Ftracker.openbittorrent.com%3A80&amp;tr=udp%3A%2F%2Fopen.demonii.com%3A1337&amp;tr=udp%3A%2F%2Ftracker.coppersurfer.tk%3A6969&amp;tr=udp%3A%2F%2Fexodus.desync.com%3A6969","seeders":1,"leechers":0,"uploader":"toots2boots","files":1,"time":1433747790,"description":"Science Documentary hosted by Jude Corbett, published by National Geographic in 2010 - English narration\nJurassic CSI: Ultimate Dino Secrets Special\nDino detective, Dr. Phil Manning, launches a full-scale investigation to unearth how dinosaurs really looked and lived. Jurassic CSI goes into the minds, under the skin and inside the bones of the biggest, most impressive beasts ever to walk the planet. In this special episode, Dr. Manning doesn't stick to convention or even his own discipline on his perpetual quest to expand what we know about dinosaurs. With privileged access to some of the world's most sophisticated technologies, from crime scene 3D mapping technology to an image machine one million times stronger than a chest X-ray, Jurassic CSI challenges long held assumptions and poses radical questions about our understanding of dinosaurs.\n\nGeneral\nComplete name                            : M:PostsJurassic CSI S01 Ultimate Dino Secrets Special HDTV XviD-AFGJurassic.CSI.S01.Ultimate.Dino.Secrets.Special.HDTV.XviD-AFG.avi\nFormat                                   : AVI\nFormat/Info                              : Audio Video Interleave\nFile size                                : 443 MiB\nDuration                                 : 43mn 58s\nOverall bit rate mode                    : Variable\nOverall bit rate                         : 1 409 Kbps\n\nVideo\nID                                       : 0\nFormat                                   : MPEG-4 Visual\nFormat profile                           : Advanced Simple@L5\nFormat settings, BVOP                    : 2\nFormat settings, QPel                    : No\nFormat settings, GMC                     : No warppoints\nFormat settings, Matrix                  : Default (H.263)\nCodec ID                                 : XVID\nCodec ID/Hint                            : XviD\nDuration                                 : 43mn 58s\nBit rate                                 : 1 267 Kbps\nWidth                                    : 640 pixels\nHeight                                   : 360 pixels\nDisplay aspect ratio                     : 16:9\nFrame rate                               : 29.970 fps\nColor space                              : YUV\nChroma subsampling                       : 4:2:0\nBit depth                                : 8 bits\nScan type                                : Progressive\nCompression mode                         : Lossy\nBits/(Pixel*Frame)                       : 0.183\nStream size                              : 399 MiB (90%)\nWriting library                          : XviD 64\n\nAudio\nID                                       : 1\nFormat                                   : MPEG Audio\nFormat version                           : Version 1\nFormat profile                           : Layer 3\nMode                                     : Joint stereo\nMode extension                           : MS Stereo\nCodec ID                                 : 55\nCodec ID/Hint                            : MP3\nDuration                                 : 43mn 58s\nBit rate mode                            : Variable\nBit rate                                 : 128 Kbps\nChannel(s)                               : 2 channels\nSampling rate                            : 48.0 KHz\nCompression mode                         : Lossy\nStream size                              : 40.3 MiB (9%)\nAlignment                                : Aligned on interleaves\nInterleave, duration                     : 24 ms (0.72 video frame)\nInterleave, preload duration             : 178 ms\nTitle                                    : Jurassic.CSI.S01.Ultimate.Dino.Secrets.Special.HDTV.XviD-AFG_360p.audio","torrent":{"xt":"urn:btih:74f8bd17d307242aee7599c7b86f0dda8e031b9b","amp;dn":"Jurassic+CSI+S01+Ultimate+Dino+Secrets+Special+HDTV+XviD-AFG","amp;tr":["udp%3A%2F%2Ftracker.openbittorrent.com%3A80","udp%3A%2F%2Fopen.demonii.com%3A1337","udp%3A%2F%2Ftracker.coppersurfer.tk%3A6969","udp%3A%2F%2Fexodus.desync.com%3A6969"],"infoHash":"74f8bd17d307242aee7599c7b86f0dda8e031b9b","infoHashBuffer":{"type":"Buffer","data":[116,248,189,23,211,7,36,42,238,117,153,199,184,111,13,218,142,3,27,155]},"announce":[],"urlList":[]}}